<svg xmlns="http://www.w3.org/2000/svg" xmlns:xlink="http://www.w3.org/1999/xlink" width="450" height="1000" version="1">
    <defs>
        <linearGradient id="a">
            <stop offset="0" stop-opacity=".51"/>
            <stop offset="1" stop-opacity="0"/>
        </linearGradient>
        <linearGradient xlink:href="#a" id="g" x1="83.588" x2="83.6" y1="-972.4" y2="-952.36" gradientTransform="matrix(.71429 0 0 1 -317.71 1250.4)" gradientUnits="userSpaceOnUse"/>
        <linearGradient xlink:href="#a" id="f" x1="83.587" x2="83.587" y1="-968.4" y2="-952.4" gradientTransform="matrix(.71443 0 0 .99936 -317.73 1249.8)" gradientUnits="userSpaceOnUse"/>
        <linearGradient id="e" x1="-125.67" x2="-125.67" y1="630.62" y2="666.4" gradientTransform="matrix(2.2361 0 0 .44575 0 .97)" gradientUnits="userSpaceOnUse">
            <stop offset="0" stop-opacity=".51"/>
            <stop offset="1" stop-opacity="0"/>
        </linearGradient>
        <linearGradient xlink:href="#a" id="o" x1="83.6" x2="83.6" y1="-968.08" y2="-953.79" gradientTransform="matrix(.71429 0 0 .70003 -317.72 961.68)" gradientUnits="userSpaceOnUse"/>
        <linearGradient xlink:href="#a" id="n" x1="83.601" x2="83.601" y1="-966.65" y2="-953.79" gradientTransform="matrix(.71429 0 0 .7 -317.72 961.67)" gradientUnits="userSpaceOnUse"/>
        <linearGradient xlink:href="#a" id="m" x1="83.6" x2="83.6" y1="-968.08" y2="-953.79" gradientTransform="matrix(.71429 0 0 .7 -317.76 961.64)" gradientUnits="userSpaceOnUse"/>
        <linearGradient xlink:href="#a" id="k" x1="83.6" x2="83.6" y1="-968.08" y2="-953.79" gradientTransform="matrix(.71429 0 0 .69999 -317.35 961.43)" gradientUnits="userSpaceOnUse"/>
        <radialGradient xlink:href="#a" id="j" cx="8.557" cy="54.062" r="9" gradientTransform="matrix(-1.7778 0 0 -2.2222 46.212 650.14)" gradientUnits="userSpaceOnUse"/>
        <radialGradient xlink:href="#a" id="i" cx="7.842" cy="54.773" r="9" gradientTransform="matrix(-1.7778 -.00045 -.00044 1.7754 44.965 382.76)" gradientUnits="userSpaceOnUse"/>
        <radialGradient xlink:href="#a" id="p" cx="10.14" cy="52.482" r="9" gradientTransform="matrix(-1.1111 0 0 1.1111 385.27 360.69)" gradientUnits="userSpaceOnUse"/>
        <radialGradient xlink:href="#a" id="q" cx="10.14" cy="52.481" r="9" gradientTransform="matrix(1.1111 0 0 -1.1111 416.73 531.31)" gradientUnits="userSpaceOnUse"/>
        <radialGradient xlink:href="#a" id="r" cx="10.14" cy="52.481" r="9" gradientTransform="matrix(-1.1111 0 0 -1.1111 385.27 531.31)" gradientUnits="userSpaceOnUse"/>
        <radialGradient xlink:href="#a" id="l" cx="10.14" cy="52.482" r="9" gradientTransform="matrix(1.1111 0 0 1.1111 416.73 360.69)" gradientUnits="userSpaceOnUse"/>
    </defs>
    <g fill="#5a5a5a">
        <path d="m138.12 745.741-1.75 1 2.25 3.906 1.75-1zm20.75 0-2.25 3.906 1.75 1 2.25-3.906zm-32.875 19v2h4.5v-2zm40.5 0v2h4.5v-2zm-27.875 16.094-2.25 3.906 1.75 1 2.25-3.906zm19.75 0-1.75 1 2.25 3.906 1.75-1zM146.41 743.331l-.5.063.313 2.968.5-.03zm4.188 0-.313 3 .5.031.313-2.969zm-8.813.938-.469.156.938 2.844.469-.157zm13.438 0-.938 2.843.47.157.937-2.844zm-21.594 4.593-.375.313 2.031 2.25.344-.344zm29.75 0-2 2.22.344.343 2.031-2.25zm-32.938 3.438-.281.406 2.406 1.781.312-.406zm36.125 0-2.438 1.781.313.406 2.406-1.781zm-38.5 4.062-.219.438 2.75 1.25.188-.469zm40.875 0-2.719 1.22.188.468 2.75-1.25zm-42.406 4.438-.094.5 2.938.625.093-.5zm43.938 0-2.938.625.094.5 2.938-.625zm-41.094 8.75-2.938.625.094.5 2.938-.625zm38.25 0-.094.5 2.938.625.093-.5zm-37.031 3.875-2.75 1.25.219.437 2.719-1.218zm35.812 0-.188.469 2.72 1.218.218-.437zm-33.844 3.562-2.406 1.782.281.406 2.437-1.781zm31.875 0-.313.407 2.438 1.78.281-.405zm-29.156 3.063-2.031 2.25.375.312 2-2.218zm26.438 0-.344.344 2 2.218.375-.312z"/>
    </g>
    <circle cx="98" cy="783.99" r="5" fill="#4285f4"/>
    <path d="m28.75 83.75-17.5 17.5h17.5z" opacity=".001"/>
    <path fill="#81c995" d="M144.354 230.249c-4.406 0-8 3.594-8 8s3.594 8 8 8 8-3.594 8-8-3.594-8-8-8m0 2c3.326 0 6 2.674 6 6s-2.674 6-6 6-6-2.674-6-6 2.674-6 6-6m0 3a3 3 0 0 0-3 3 3 3 0 0 0 3 3 3 3 0 0 0 3-3 3 3 0 0 0-3-3"/>
    <path fill="#acb1bc" d="M279.017 759.99h2v32h-2z" opacity=".001"/>
    <path fill="#5a5a5a" d="M210 789.99h5v1h-5z"/>
    <g opacity=".001">
        <path d="M486.5 7 469 24.5h17.5z" opacity=".3"/>
    </g>
    <path fill="#4285f4" d="M485.09 41.086 461.676 64.5h26.828V37.672z" opacity=".001"/>
    <path d="M410 160v10h10v-10zM410 170v10h10v-10z"/>
    <path d="M256 20.923h10v10h-10z" opacity=".15"/>
    <path id="b" fill="#5a616e" d="M277.63 1039h1.75v32h-1.75z" opacity=".001" transform="matrix(1.1429 0 0 1 -10.286 -279.01)"/>
    <use xlink:href="#b" width="100%" height="100%" opacity=".001" transform="translate(30)"/>
    <path d="M10 20h10v10H10z"/>
    <path d="M17 345h16v16H17z" opacity=".001"/>
    <path fill="#eaeaea" d="M28.002 348.99a1 1 0 0 0-.707.293l-2.293 2.293-2.283-2.283-.01-.01a1 1 0 0 0-.701-.29l-.01.014a1 1 0 0 0-1 1 1 1 0 0 0 .293.707l2.293 2.293-2.293 2.293a1 1 0 0 0-.29.7 1 1 0 0 0 1 1 1 1 0 0 0 .708-.293l2.293-2.293 2.283 2.283a1 1 0 0 0 .717.303 1 1 0 0 0 1-1 1 1 0 0 0-.293-.707l-2.301-2.3 2.283-2.282a1 1 0 0 0 .31-.721 1 1 0 0 0-1-1z"/>
    <g transform="translate(-37 -83.03)">
        <path d="M72 428.03h16v16H72z" opacity=".001"/>
        <rect width="8" height="2" x="76" y="435.03" fill="#eaeaea" rx="1" ry="1"/>
    </g>
    <path d="M53 345h16v16H53z" opacity=".001"/>
    <path fill="#eaeaea" d="M61 349c-.554 0-1 .446-1 1v2h-2c-.554 0-1 .446-1 1s.446 1 1 1h2v2c0 .554.446 1 1 1s1-.446 1-1v-2h2c.554 0 1-.446 1-1s-.446-1-1-1h-2v-2c0-.554-.446-1-1-1"/>
    <path d="M71 345h16v16H71z" opacity=".001"/>
    <path fill="#eaeaea" d="M79 349a4 4 0 0 0-4 4 4 4 0 0 0 4 4 4 4 0 0 0 4-4 4 4 0 0 0-4-4m0 2a2 2 0 0 1 2 2 2 2 0 0 1-2 2 2 2 0 0 1-2-2 2 2 0 0 1 2-2"/>
    <path d="M17 362h16v16H17z" opacity=".001"/>
    <path fill="#f04a50" d="M28.002 365.99a1 1 0 0 0-.707.293l-2.293 2.293-2.283-2.283-.01-.01a1 1 0 0 0-.701-.29l-.01.014a1 1 0 0 0-1 1 1 1 0 0 0 .293.707l2.293 2.293-2.293 2.293a1 1 0 0 0-.29.7 1 1 0 0 0 1 1 1 1 0 0 0 .708-.293l2.293-2.293 2.283 2.283a1 1 0 0 0 .717.303 1 1 0 0 0 1-1 1 1 0 0 0-.293-.707l-2.301-2.3 2.283-2.282a1 1 0 0 0 .31-.721 1 1 0 0 0-1-1z"/>
    <g transform="translate(-37 -66.03)">
        <path d="M72 428.03h16v16H72z" opacity=".001"/>
        <rect width="8" height="2" x="76" y="435.03" fill="#f04a50" rx="1" ry="1"/>
    </g>
    <path d="M53 362h16v16H53z" opacity=".001"/>
    <path fill="#f04a50" d="M61 366c-.554 0-1 .446-1 1v2h-2c-.554 0-1 .446-1 1s.446 1 1 1h2v2c0 .554.446 1 1 1s1-.446 1-1v-2h2c.554 0 1-.446 1-1s-.446-1-1-1h-2v-2c0-.554-.446-1-1-1"/>
    <path d="M71 362h16v16H71z" opacity=".001"/>
    <path fill="#f04a50" d="M79 366a4 4 0 0 0-4 4 4 4 0 0 0 4 4 4 4 0 0 0 4-4 4 4 0 0 0-4-4m0 2a2 2 0 0 1 2 2 2 2 0 0 1-2 2 2 2 0 0 1-2-2 2 2 0 0 1 2-2"/>
    <path d="M17 379h16v16H17z" opacity=".001"/>
    <path fill="#4285f4" d="M28.002 382.99a1 1 0 0 0-.707.293l-2.293 2.293-2.283-2.283-.01-.01a1 1 0 0 0-.701-.29l-.01.014a1 1 0 0 0-1 1 1 1 0 0 0 .293.707l2.293 2.293-2.293 2.293a1 1 0 0 0-.29.7 1 1 0 0 0 1 1 1 1 0 0 0 .708-.293l2.293-2.293 2.283 2.283a1 1 0 0 0 .717.303 1 1 0 0 0 1-1 1 1 0 0 0-.293-.707l-2.301-2.3 2.283-2.282a1 1 0 0 0 .31-.721 1 1 0 0 0-1-1z"/>
    <g transform="translate(-37 -49.03)">
        <path d="M72 428.03h16v16H72z" opacity=".001"/>
        <rect width="8" height="2" x="76" y="435.03" fill="#4285f4" rx="1" ry="1"/>
    </g>
    <path d="M53 379h16v16H53z" opacity=".001"/>
    <path fill="#4285f4" d="M61 383c-.554 0-1 .446-1 1v2h-2c-.554 0-1 .446-1 1s.446 1 1 1h2v2c0 .554.446 1 1 1s1-.446 1-1v-2h2c.554 0 1-.446 1-1s-.446-1-1-1h-2v-2c0-.554-.446-1-1-1"/>
    <path d="M71 379h16v16H71z" opacity=".001"/>
    <path fill="#4285f4" d="M79 383a4 4 0 0 0-4 4 4 4 0 0 0 4 4 4 4 0 0 0 4-4 4 4 0 0 0-4-4m0 2a2 2 0 0 1 2 2 2 2 0 0 1-2 2 2 2 0 0 1-2-2 2 2 0 0 1 2-2"/>
    <path d="M17 396h16v16H17z" opacity=".001"/>
    <path fill="#eaeaea" d="M28.002 399.99a1 1 0 0 0-.707.293l-2.293 2.293-2.283-2.283-.01-.01a1 1 0 0 0-.701-.29l-.01.014a1 1 0 0 0-1 1 1 1 0 0 0 .293.707l2.293 2.293-2.293 2.293a1 1 0 0 0-.29.7 1 1 0 0 0 1 1 1 1 0 0 0 .708-.293l2.293-2.293 2.283 2.283a1 1 0 0 0 .717.303 1 1 0 0 0 1-1 1 1 0 0 0-.293-.707l-2.301-2.3 2.283-2.282a1 1 0 0 0 .31-.721 1 1 0 0 0-1-1z" opacity=".3"/>
    <g transform="translate(-37 -32.03)">
        <path d="M72 428.03h16v16H72z" opacity=".001"/>
        <rect width="8" height="2" x="76" y="435.03" fill="#eaeaea" opacity=".3" rx="1" ry="1"/>
    </g>
    <path d="M53 396h16v16H53z" opacity=".001"/>
    <path fill="#eaeaea" d="M61 400c-.554 0-1 .446-1 1v2h-2c-.554 0-1 .446-1 1s.446 1 1 1h2v2c0 .554.446 1 1 1s1-.446 1-1v-2h2c.554 0 1-.446 1-1s-.446-1-1-1h-2v-2c0-.554-.446-1-1-1" opacity=".3"/>
    <path d="M71 396h16v16H71z" opacity=".001"/>
    <path fill="#eaeaea" d="M79 400a4 4 0 0 0-4 4 4 4 0 0 0 4 4 4 4 0 0 0 4-4 4 4 0 0 0-4-4m0 2a2 2 0 0 1 2 2 2 2 0 0 1-2 2 2 2 0 0 1-2-2 2 2 0 0 1 2-2" opacity=".3"/>
    <path d="M98 345h16v16H98z" opacity=".001"/>
    <path fill="#eaeaea" d="M103 349c-.554 0-1 .446-1 1s.446 1 1 1h6c.554 0 1-.446 1-1s-.446-1-1-1zm0 3c-.554 0-1 .446-1 1s.446 1 1 1h6c.554 0 1-.446 1-1s-.446-1-1-1zm0 3c-.554 0-1 .446-1 1s.446 1 1 1h6c.554 0 1-.446 1-1s-.446-1-1-1z"/>
    <path fill="#fff" fill-opacity=".995" d="M34.385 230.877c-4.406 0-8 3.594-8 8s3.594 8 8 8 8-3.594 8-8-3.593-8-8-8m0 2c3.326 0 6 2.674 6 6s-2.674 6-6 6-6-2.674-6-6 2.674-6 6-6" opacity=".5"/>
    <path d="M18 153h8v8h-8z" opacity=".001"/>
    <path d="M190 20h8v8h-8z"/>
    <path d="M71 179h12v8H71z" opacity=".25"/>
    <path fill="#4285f4" d="M32 167h12v12H32zM32 187h12v12H32zM20 167h12v12H20zM44 167h12v12H44zM20 187h12v12H20zM44 187h12v12H44z"/>
    <path d="M71 167h12v12H71zM71 187h12v12H71zM59 167h12v12H59zM83 167h12v12H83zM59 187h12v12H59zM83 187h12v12H83z" opacity=".25"/>
    <path d="M110 167h12v12h-12zM110 187h12v12h-12zM98 167h12v12H98zM122 167h12v12h-12zM98 187h12v12H98zM122 187h12v12h-12z" opacity=".12"/>
    <path fill="#4285f4" d="M32 179h12v8H32zM20 179h12v8H20zM44 179h12v8H44z"/>
    <path d="M59 179h12v8H59zM83 179h12v8H83z" opacity=".25"/>
    <path d="M98 179h12v8H98zM110 179h12v8h-12zM122 179h12v8h-12z" opacity=".12"/>
    <path fill="#4285f4" d="M52 930.26h8v4h-8zM52 942.26h8v4h-8zM52 934.26h8v8h-8zM60 930.26c4 0 4 4 4 4h-4zM60 942.26h4s0 4-4 4zM60 934.26h4v8h-4zM48 934.26h4v8h-4zM52 930.26v4h-4s0-4 4-4M48 942.26h4v4c-4 0-4-4-4-4M71 930.26h8v4h-8zM71 942.26h8v4h-8zM71 934.26h8v8h-8zM79 934.26h4v8h-4zM79 930.26c4 0 4 4 4 4h-4zM79 942.26h4s0 4-4 4zM67 934.26h4v8h-4zM71 930.26v4h-4s0-4 4-4M67 942.26h4v4c-4 0-4-4-4-4"/>
    <path fill="#fff" d="M33 930.26h8v4h-8zM33 942.26h8v4h-8zM33 934.26h8v8h-8zM41 934.26h4v8h-4zM41 930.26c4 0 4 4 4 4h-4zM41 942.26h4s0 4-4 4zM29 934.26h4v8h-4zM33 930.26v4h-4s0-4 4-4M29 942.26h4v4c-4 0-4-4-4-4" opacity=".07"/>
    <path fill="#fff" d="M245 107a5 5 0 0 1-10 0 5 5 0 1 1 10 0" opacity=".16"/>
    <path fill="#fff" d="M116 946v-17.999h-6v18zM116 921c-3.3 0-6 2.7-6 6h6zM117 928v18h18v-18zM136 946v-17.999h6v18zM136 921c3.3 0 6 2.7 6 6h-6zM117 927h17.999v-6h-18zM135 947h-17.999v6h18zM116 953c-3.3 0-6-2.7-6-6h6zM136 953c3.3 0 6-2.7 6-6h-6z" opacity=".1"/>
    <path id="c" fill="#333" d="M223.93 399.69v32h32v-32z" opacity=".8"/>
    <use xlink:href="#c" width="100%" height="100%" fill="#1f1f1f" opacity=".8" transform="translate(0 -45)"/>
    <path fill="#fff" d="M146 104.88h-6v6h6z" opacity=".19"/>
    <path fill="#4285f4" d="M124 104.88h-6v6h6z"/>
    <path fill="#fff" d="M108 104.88h-6v6h6z" opacity=".08"/>
    <path fill="#fff" stroke-width="1.025" d="M185.766 101.764v10h1.904v-10zM197.19 101.764v10h1.905v-10zM187.67 99.764v2h9.52v-2zM187.67 111.764v2h9.52v-2z" opacity=".19"/>
    <path fill="#fff" d="M185.77 111.76h1.904v2c-1.904 0-1.904-2-1.904-2M199.09 111.76h-1.904v2c1.904 0 1.904-2 1.904-2M185.77 101.76h1.904v-2c-1.904 0-1.904 2-1.904 2M199.09 101.76h-1.904v-2c1.904 0 1.904 2 1.904 2" opacity=".19"/>
    <path fill="#fff" d="M71.235 230.316c-4.406 0-8 3.594-8 8s3.594 8 8 8 8-3.594 8-8-3.594-8-8-8m0 2c3.326 0 6 2.674 6 6s-2.674 6-6 6-6-2.674-6-6 2.674-6 6-6M109.235 230.316c-4.406 0-8 3.594-8 8s3.594 8 8 8 8-3.594 8-8-3.594-8-8-8m0 2c3.326 0 6 2.674 6 6s-2.674 6-6 6-6-2.674-6-6 2.674-6 6-6" opacity=".5"/>
    <path d="M23.03 281.42h8v8h-8z" opacity=".001"/>
    <path fill="#dfdfdf" d="m30.034 285.415-5 4v-8l2.5 2z"/>
    <path d="M33.03 281.42h8v8h-8z" opacity=".001"/>
    <path fill="#fff" d="m40.034 285.415-5 4v-8l2.5 2z"/>
    <path d="M43.03 281.42h8v8h-8z" opacity=".001"/>
    <path fill="#fff" d="m50.034 285.415-5 4v-8l2.5 2z"/>
    <path d="M53.03 281.42h8v8h-8z" opacity=".001"/>
    <path fill="#fff" d="m60.034 285.415-5 4v-8l2.5 2z"/>
    <path d="M63.03 281.42h8v8h-8z" opacity=".001"/>
    <path fill="#dfdfdf" d="m70.034 285.415-5 4v-8l2.5 2z" opacity=".3"/>
    <path d="M31.04 300.42h-8v-8h8z" opacity=".001"/>
    <path fill="#dfdfdf" d="m24.036 296.425 5-4v8l-2.5-2z"/>
    <path d="M41.04 300.42h-8v-8h8z" opacity=".001"/>
    <path fill="#fff" d="m34.036 296.425 5-4v8l-2.5-2z"/>
    <path d="M51.04 300.42h-8v-8h8z" opacity=".001"/>
    <path fill="#fff" d="m44.036 296.425 5-4v8l-2.5-2z"/>
    <path d="M61.04 300.42h-8v-8h8z" opacity=".001"/>
    <path fill="#fff" d="m54.036 296.425 5-4v8l-2.5-2z"/>
    <path d="M71.04 300.42h-8v-8h8z" opacity=".001"/>
    <path fill="#dfdfdf" d="m64.036 296.425 5-4v8l-2.5-2z" opacity=".3"/>
    <path d="M23.035 311.415v-8h8v8z" opacity=".001"/>
    <path fill="#dfdfdf" d="m27.03 304.41 4 5h-8l2-2.5z"/>
    <path d="M33.035 311.415v-8h8v8z" opacity=".001"/>
    <path fill="#fff" d="m37.03 304.41 4 5h-8l2-2.5z"/>
    <path d="M43.035 311.415v-8h8v8z" opacity=".001"/>
    <path fill="#fff" d="m47.03 304.41 4 5h-8l2-2.5z"/>
    <path d="M53.035 311.415v-8h8v8z" opacity=".001"/>
    <path fill="#fff" d="m57.03 304.411 4 5h-8l2-2.5z"/>
    <path d="M63.035 311.415v-8h8v8z" opacity=".001"/>
    <path fill="#dfdfdf" d="m67.03 304.411 4 5h-8l2-2.5z" opacity=".3"/>
    <path d="M31.03 313.41v8h-8v-8z" opacity=".001"/>
    <path fill="#dfdfdf" d="m27.035 320.414-4-5h8l-2 2.5z"/>
    <path d="M41.03 313.41v8h-8v-8z" opacity=".001"/>
    <path fill="#fff" d="m37.035 320.414-4-5h8l-2 2.5z"/>
    <path d="M51.03 313.41v8h-8v-8z" opacity=".001"/>
    <path fill="#fff" d="m47.035 320.414-4-5h8l-2 2.5z"/>
    <path d="M61.03 313.41v8h-8v-8z" opacity=".001"/>
    <path fill="#fff" d="m57.035 320.414-4-5h8l-2 2.5z"/>
    <path d="M71.03 313.41v8h-8v-8z" opacity=".001"/>
    <path fill="#dfdfdf" d="m67.035 320.414-4-5h8l-2 2.5z" opacity=".3"/>
    <path d="M78.03 281.42h8v8h-8z" opacity=".001"/>
    <path fill="#dfdfdf" d="m85.034 285.415-5 4v-8l2.5 2z"/>
    <path d="M88.033 281.42h8v8h-8z" opacity=".001"/>
    <path fill="#dfdfdf" d="m95.037 285.415-5 4v-8l2.5 2z"/>
    <path d="M98.033 281.42h8v8h-8z" opacity=".001"/>
    <path fill="#dfdfdf" d="m105.037 285.415-5 4v-8l2.5 2z"/>
    <path d="M108.033 281.42h8v8h-8z" opacity=".001"/>
    <path fill="#dfdfdf" d="m115.037 285.415-5 4v-8l2.5 2z"/>
    <path d="M118.033 281.42h8v8h-8z" opacity=".001"/>
    <path fill="#dfdfdf" d="m125.037 285.415-5 4v-8l2.5 2z" opacity=".3"/>
    <path d="M86.04 300.42h-8v-8h8z" opacity=".001"/>
    <path fill="#dfdfdf" d="m79.036 296.425 5-4v8l-2.5-2z"/>
    <path d="M96.04 300.42h-8v-8h8z" opacity=".001"/>
    <path fill="#dfdfdf" d="m89.036 296.425 5-4v8l-2.5-2z"/>
    <path d="M106.04 300.42h-8v-8h8z" opacity=".001"/>
    <path fill="#dfdfdf" d="m99.036 296.425 5-4v8l-2.5-2z"/>
    <path d="M116.04 300.42h-8v-8h8z" opacity=".001"/>
    <path fill="#dfdfdf" d="m109.036 296.425 5-4v8l-2.5-2z"/>
    <path d="M126.04 300.42h-8v-8h8z" opacity=".001"/>
    <path fill="#dfdfdf" d="m119.036 296.425 5-4v8l-2.5-2z" opacity=".3"/>
    <path d="M78.035 311.415v-8h8v8z" opacity=".001"/>
    <path fill="#dfdfdf" d="m82.03 304.411 4 5h-8l2-2.5z"/>
    <path d="M88.035 311.415v-8h8v8z" opacity=".001"/>
    <path fill="#dfdfdf" d="m92.03 304.411 4 5h-8l2-2.5z"/>
    <path d="M98.035 311.415v-8h8v8z" opacity=".001"/>
    <path fill="#dfdfdf" d="m102.03 304.411 4 5h-8l2-2.5z"/>
    <path d="M108.035 311.415v-8h8v8z" opacity=".001"/>
    <path fill="#dfdfdf" d="m112.03 304.411 4 5h-8l2-2.5z"/>
    <path d="M118.035 311.415v-8h8v8z" opacity=".001"/>
    <path fill="#dfdfdf" d="m122.03 304.411 4 5h-8l2-2.5z" opacity=".3"/>
    <path d="M86.03 313.41v8h-8v-8z" opacity=".001"/>
    <path fill="#dfdfdf" d="m82.035 320.414-4-5h8l-2 2.5z"/>
    <path d="M96.03 313.41v8h-8v-8z" opacity=".001"/>
    <path fill="#dfdfdf" d="m92.035 320.414-4-5h8l-2 2.5z"/>
    <path d="M106.03 313.41v8h-8v-8z" opacity=".001"/>
    <path fill="#dfdfdf" d="m102.035 320.414-4-5h8l-2 2.5z"/>
    <path d="M116.03 313.41v8h-8v-8z" opacity=".001"/>
    <path fill="#dfdfdf" d="m112.035 320.414-4-5h8l-2 2.5z"/>
    <path d="M126.03 313.41v8h-8v-8z" opacity=".001"/>
    <path fill="#dfdfdf" d="m122.035 320.414-4-5h8l-2 2.5z" opacity=".3"/>
    <path d="M132.03 281.416h8v8h-8z" opacity=".001"/>
    <path fill="#dfdfdf" d="M135.03 281.416v3h-3v2h3v3h2v-3h3v-2h-3v-3z"/>
    <path d="M132.03 292.416h8v8h-8z" opacity=".001"/>
    <path fill="#dfdfdf" d="M140.03 295.416v2h-8v-2z"/>
    <path d="M142.03 281.416h8v8h-8z" opacity=".001"/>
    <path fill="#dfdfdf" d="M145.03 281.416v3h-3v2h3v3h2v-3h3v-2h-3v-3z"/>
    <path d="M142.03 292.416h8v8h-8z" opacity=".001"/>
    <path fill="#dfdfdf" d="M150.03 295.416v2h-8v-2z"/>
    <path d="M152.03 281.416h8v8h-8z" opacity=".001"/>
    <path fill="#dfdfdf" d="M155.03 281.416v3h-3v2h3v3h2v-3h3v-2h-3v-3z"/>
    <path d="M152.03 292.416h8v8h-8z" opacity=".001"/>
    <path fill="#dfdfdf" d="M160.03 295.416v2h-8v-2z"/>
    <path d="M162.03 281.416h8v8h-8z" opacity=".001"/>
    <path fill="#dfdfdf" d="M165.03 281.416v3h-3v2h3v3h2v-3h3v-2h-3v-3z"/>
    <path d="M162.03 292.416h8v8h-8z" opacity=".001"/>
    <path fill="#dfdfdf" d="M170.03 295.416v2h-8v-2z"/>
    <path d="M172.03 281.416h8v8h-8z" opacity=".001"/>
    <path fill="#dfdfdf" d="M175.03 281.416v3h-3v2h3v3h2v-3h3v-2h-3v-3z" opacity=".3"/>
    <path d="M172.03 292.416h8v8h-8z" opacity=".001"/>
    <path fill="#dfdfdf" d="M180.03 295.416v2h-8v-2z" opacity=".3"/>
    <path d="M132.033 303.42h8v8h-8z" opacity=".001"/>
    <path fill="#dfdfdf" d="m139.037 307.415-5 4v-8l2.5 2z"/>
    <path d="M142.033 303.42h8v8h-8z" opacity=".001"/>
    <path fill="#dfdfdf" d="m149.037 307.415-5 4v-8l2.5 2z"/>
    <path d="M152.033 303.42h8v8h-8z" opacity=".001"/>
    <path fill="#dfdfdf" d="m159.037 307.415-5 4v-8l2.5 2z"/>
    <path d="M162.033 303.42h8v8h-8z" opacity=".001"/>
    <path fill="#dfdfdf" d="m169.037 307.415-5 4v-8l2.5 2z"/>
    <path d="M172.033 303.42h8v8h-8z" opacity=".001"/>
    <path fill="#dfdfdf" d="m179.037 307.415-5 4v-8l2.5 2z" opacity=".3"/>
    <path d="M140.03 313.41v8h-8v-8z" opacity=".001"/>
    <path fill="#dfdfdf" d="m136.035 320.414-4-5h8l-2 2.5z"/>
    <path d="M150.03 313.41v8h-8v-8z" opacity=".001"/>
    <path fill="#dfdfdf" d="m146.035 320.414-4-5h8l-2 2.5z"/>
    <path d="M160.03 313.41v8h-8v-8z" opacity=".001"/>
    <path fill="#dfdfdf" d="m156.035 320.414-4-5h8l-2 2.5z"/>
    <path d="M170.03 313.41v8h-8v-8z" opacity=".001"/>
    <path fill="#dfdfdf" d="m166.035 320.414-4-5h8l-2 2.5z"/>
    <path d="M180.03 313.41v8h-8v-8z" opacity=".001"/>
    <path fill="#dfdfdf" d="m176.035 320.414-4-5h8l-2 2.5z" opacity=".3"/>
    <path d="M195.03 280.41v8h-8v-8z" opacity=".001"/>
    <path fill="#dfdfdf" d="m191.035 287.414-4-5h8l-2 2.5z"/>
    <path d="M205.03 280.41v8h-8v-8z" opacity=".001"/>
    <path fill="#dfdfdf" d="m201.035 287.414-4-5h8l-2 2.5z"/>
    <path d="M215.03 280.41v8h-8v-8z" opacity=".001"/>
    <path fill="#dfdfdf" d="m211.035 287.414-4-5h8l-2 2.5z" opacity=".3"/>
    <path d="M140.03 325.41v8h-8v-8z" opacity=".001"/>
    <path fill="#dfdfdf" d="m136.035 332.414-4-5h8l-2 2.5z"/>
    <path d="M150.03 325.41v8h-8v-8z" opacity=".001"/>
    <path fill="#dfdfdf" d="m146.035 332.414-4-5h8l-2 2.5z"/>
    <path d="M160.03 325.41v8h-8v-8z" opacity=".001"/>
    <path fill="#dfdfdf" d="m156.035 332.414-4-5h8l-2 2.5z"/>
    <path d="M170.03 325.41v8h-8v-8z" opacity=".001"/>
    <path fill="#dfdfdf" d="m166.035 332.414-4-5h8l-2 2.5z"/>
    <path d="M180.03 325.41v8h-8v-8z" opacity=".001"/>
    <path fill="#dfdfdf" d="m176.035 332.414-4-5h8l-2 2.5z" opacity=".3"/>
    <path d="M195.03 299.42v-8h-8v8z" opacity=".001"/>
    <path fill="#dfdfdf" d="m191.035 292.416-4 5h8l-2-2.5z"/>
    <path d="M205.03 299.42v-8h-8v8z" opacity=".001"/>
    <path fill="#dfdfdf" d="m201.035 292.416-4 5h8l-2-2.5z"/>
    <path d="M215.03 299.42v-8h-8v8z" opacity=".001"/>
    <path fill="#dfdfdf" d="m211.035 292.416-4 5h8l-2-2.5z" opacity=".3"/>
    <path d="M195.04 310.42h-8v-8h8z" opacity=".001"/>
    <path fill="#dfdfdf" d="m188.036 306.425 5-4v8l-2.5-2z"/>
    <path d="M205.04 310.42h-8v-8h8z" opacity=".001"/>
    <path fill="#dfdfdf" d="m198.036 306.425 5-4v8l-2.5-2z"/>
    <path d="M215.04 310.42h-8v-8h8z" opacity=".001"/>
    <path fill="#dfdfdf" d="m208.036 306.425 5-4v8l-2.5-2z" opacity=".3"/>
    <path d="M187.033 321.42h8v-8h-8z" opacity=".001"/>
    <path fill="#dfdfdf" d="m194.037 317.425-5-4v8l2.5-2z"/>
    <path d="M197.033 321.42h8v-8h-8z" opacity=".001"/>
    <path fill="#dfdfdf" d="m204.037 317.425-5-4v8l2.5-2z"/>
    <path d="M207.033 321.42h8v-8h-8z" opacity=".001"/>
    <path fill="#dfdfdf" d="m214.037 317.425-5-4v8l2.5-2z" opacity=".3"/>
    <path d="M220.03 281.416h8v8h-8z" opacity=".001"/>
    <path fill="#dfdfdf" d="M223.03 281.416v3h-3v2h3v3h2v-3h3v-2h-3v-3z"/>
    <path d="M220.03 292.416h8v8h-8z" opacity=".001"/>
    <path fill="#dfdfdf" d="M228.03 295.416v2h-8v-2z"/>
    <path d="M230.03 281.416h8v8h-8z" opacity=".001"/>
    <path fill="#dfdfdf" d="M233.03 281.416v3h-3v2h3v3h2v-3h3v-2h-3v-3z"/>
    <path d="M230.03 292.416h8v8h-8z" opacity=".001"/>
    <path fill="#dfdfdf" d="M238.03 295.416v2h-8v-2z"/>
    <path d="M240.03 281.416h8v8h-8z" opacity=".001"/>
    <path fill="#dfdfdf" d="M243.03 281.416v3h-3v2h3v3h2v-3h3v-2h-3v-3z"/>
    <path d="M240.03 292.416h8v8h-8z" opacity=".001"/>
    <path fill="#dfdfdf" d="M248.03 295.416v2h-8v-2z"/>
    <path d="M250.03 281.416h8v8h-8z" opacity=".001"/>
    <path fill="#dfdfdf" d="M253.03 281.416v3h-3v2h3v3h2v-3h3v-2h-3v-3z" opacity=".3"/>
    <path d="M250.03 292.416h8v8h-8z" opacity=".001"/>
    <path fill="#dfdfdf" d="M258.03 295.416v2h-8v-2z" opacity=".3"/>
    <path d="M220.03 302.416h8v8h-8z" opacity=".001"/>
    <path fill="#dfdfdf" d="M223.03 302.416v3h-3v2h3v3h2v-3h3v-2h-3v-3z"/>
    <path d="M220.03 313.416h8v8h-8z" opacity=".001"/>
    <path fill="#dfdfdf" d="M228.03 316.416v2h-8v-2z"/>
    <path d="M230.03 302.416h8v8h-8z" opacity=".001"/>
    <path fill="#dfdfdf" d="M233.03 302.416v3h-3v2h3v3h2v-3h3v-2h-3v-3z"/>
    <path d="M230.03 313.416h8v8h-8z" opacity=".001"/>
    <path fill="#dfdfdf" d="M238.03 316.416v2h-8v-2z"/>
    <path d="M240.03 302.416h8v8h-8z" opacity=".001"/>
    <path fill="#dfdfdf" d="M243.03 302.416v3h-3v2h3v3h2v-3h3v-2h-3v-3z"/>
    <path d="M240.03 313.416h8v8h-8z" opacity=".001"/>
    <path fill="#dfdfdf" d="M248.03 316.416v2h-8v-2z"/>
    <path d="M250.03 302.416h8v8h-8z" opacity=".001"/>
    <path fill="#dfdfdf" d="M253.03 302.416v3h-3v2h3v3h2v-3h3v-2h-3v-3z" opacity=".3"/>
    <path d="M250.03 313.416h8v8h-8z" opacity=".001"/>
    <path fill="#dfdfdf" d="M258.03 316.416v2h-8v-2z" opacity=".3"/>
    <g transform="translate(39.959 -127.98)">
        <path d="M317 405h22v22h-22z" opacity=".001"/>
        <circle cx="328" cy="416" r="5" fill="#4285f4"/>
    </g>
    <g transform="translate(39.959 -127.98)">
        <path d="M361 405h22v22h-22z" opacity=".001"/>
        <circle cx="372" cy="416" r="11" fill="#4285f4" opacity=".3"/>
        <circle cx="372" cy="416" r="5" fill="#4285f4"/>
    </g>
    <g transform="translate(39.959 -127.98)">
        <path d="M339 405h22v22h-22z" opacity=".001"/>
        <circle cx="350" cy="416" r="11" fill="#4285f4" opacity=".2"/>
        <circle cx="350" cy="416" r="5" fill="#4285f4"/>
    </g>
    <g transform="translate(39.959 -127.98)">
        <path d="M295 405h22v22h-22z" opacity=".001"/>
        <circle cx="306" cy="416" r="5" fill="#424242"/>
        <circle cx="306" cy="416" r="3" fill="#36383e"/>
    </g>
    <path d="M356.959 299.02h22v22h-22z" opacity=".001"/>
    <path fill="#4285f4" d="m374.959 310.02-3.4-3.472q-.004-.002-.008-.005a5 5 0 1 0-3.592 8.477 5 5 0 0 0 3.563-1.5q.007-.001.013-.006z"/>
    <g transform="translate(39.959 -127.98)">
        <path d="M339 427h22v22h-22z" opacity=".001"/>
        <circle cx="350" cy="438" r="11" fill="#4285f4" opacity=".2"/>
        <path fill="#4285f4" d="m357 438-3.4-3.472q-.004-.002-.008-.005A5 5 0 1 0 350 443a5 5 0 0 0 3.563-1.5q.007-.001.013-.006z"/>
    </g>
    <g transform="translate(39.959 -127.98)">
        <path d="M361 427h22v22h-22z" opacity=".001"/>
        <circle cx="372" cy="438" r="11" fill="#4285f4" opacity=".3"/>
        <path fill="#4285f4" d="m379 438-3.4-3.472q-.004-.002-.008-.005A5 5 0 1 0 372 443a5 5 0 0 0 3.563-1.5q.007-.001.013-.006z"/>
    </g>
    <path d="M334.959 299.02h23v22h-23z" opacity=".001"/>
    <path fill="#424242" d="M345.959 305.02a5 5 0 0 0 0 10 5 5 0 0 0 3.563-1.498l.013-.008 3.424-3.494-3.4-3.47-.008-.007a5 5 0 0 0-3.592-1.523"/>
    <path fill="#36383e" d="M345.959 307.02c-1.68.001-2.998 1.32-2.998 3s1.318 2.999 2.998 3a3 3 0 0 0 2.137-.898l.066-.065 1.998-2.037-1.998-2.037-.066-.065a3 3 0 0 0-2.137-.898"/>
    <path d="M310.95 295.02h8v8h-8z" opacity=".25"/>
    <path fill="#4285f4" d="M290.95 287.02h8v8h-8zM290.95 303.02h8v8h-8zM282.95 287.02h8v8h-8zM282.95 303.02h8v8h-8z"/>
    <path d="M310.95 287.02h8v8h-8zM310.95 303.02h8v8h-8zM302.95 287.02h8v8h-8zM302.95 303.02h8v8h-8z" opacity=".25"/>
    <path fill="#4285f4" d="M290.95 295.02h8v8h-8zM282.95 295.02h8v8h-8z"/>
    <path d="M302.95 295.02h8v8h-8z" opacity=".25"/>
    <path fill="#4285f4" d="M95 615h15v15H95zM310.982 416.66h-2.246v2h2.246zm-4.492 0h-2.246v2h2.246z"/>
    <path fill="#262626" d="M269.63 489.41v32h32v-32zM269.63 521.411v-32h-4v32z" opacity=".8"/>
    <path d="M265.63 489.412v32h2v-32z" opacity=".36"/>
    <path fill="#262626" d="M269.63 485.412h-4v4h4z" opacity=".8"/>
    <path d="M269.63 485.412h-4v4h2v-2h2z" opacity=".35"/>
    <path fill="#262626" d="M301.64 521.411v-32h4v32z" opacity=".8"/>
    <path d="M305.64 489.412v32h-2v-32z" opacity=".36"/>
    <path fill="#262626" d="M301.64 485.412h4v4h-4z" opacity=".8"/>
    <path d="M301.64 485.412h4v4h-2v-2h-2z" opacity=".35"/>
    <path fill="#262626" d="M269.629 489.41h32v-4h-32z" opacity=".8"/>
    <path d="M301.628 485.41h-32v2h32z" opacity=".36"/>
    <path fill="#262626" d="M301.631 521.41h-32v4h32z" opacity=".8"/>
    <path d="M269.632 525.41h32v-2h-32z" opacity=".36"/>
    <path fill="#262626" d="M265.632 521.41v4h4v-4z" opacity=".8"/>
    <path d="M265.632 521.41v4h4v-2h-2v-2z" opacity=".35"/>
    <path fill="#262626" d="M301.63 525.408h4v-4h-4z" opacity=".8"/>
    <path d="M301.63 525.408h4v-4h-2v2h-2z" opacity=".35"/>
    <path fill="#646464" d="M324.979 416.66h-2.246v2h2.246zm-4.492 0h-2.246v2h2.246z"/>
    <path d="M259.76 686.36h22v22h-22z" opacity=".001"/>
    <path fill="#dfdfdf" d="M266.763 693.364h1.03c.256.012.51.129.688.313l2.28 2.281 2.312-2.281c.266-.23.447-.306.687-.313h1v1c0 .287-.034.55-.25.75l-2.28 2.281 2.249 2.25c.188.189.28.454.28.72v1h-.999c-.265-.001-.53-.094-.718-.282l-2.28-2.281-2.28 2.28a1.01 1.01 0 0 1-.72.282h-.999v-1c0-.265.093-.53.281-.719l2.28-2.25-2.28-2.28a.91.91 0 0 1-.28-.75z"/>
    <g transform="translate(259.76 686.36)">
        <path d="M46 0h22v22H46z" opacity=".001"/>
        <circle cx="57" cy="11" r="11" fill="#fff" opacity=".19"/>
        <path fill="#dfdfdf" d="M53.003 7h1.03c.256.011.51.129.688.313l2.28 2.28 2.312-2.28c.266-.23.447-.306.687-.313h1v1c0 .287-.034.55-.25.75l-2.28 2.281 2.249 2.25c.188.188.28.454.28.719v1H60c-.265 0-.53-.093-.718-.281l-2.28-2.281-2.281 2.28a1.01 1.01 0 0 1-.719.282h-1v-1c0-.265.094-.53.282-.719l2.28-2.25-2.28-2.28a.91.91 0 0 1-.281-.75z"/>
    </g>
    <path d="M328.76 686.36h22v22h-22z" opacity=".001"/>
    <path fill="#dfdfdf" d="M335.763 693.364h1.03c.256.012.51.129.688.313l2.28 2.281 2.312-2.281c.266-.23.447-.306.687-.313h1v1c0 .287-.034.55-.25.75l-2.28 2.281 2.249 2.25c.188.189.28.454.28.72v1h-.999c-.265-.001-.53-.094-.718-.282l-2.28-2.281-2.28 2.28a1.01 1.01 0 0 1-.72.282h-.999v-1c0-.265.093-.53.281-.719l2.28-2.25-2.28-2.28a.91.91 0 0 1-.28-.75z" opacity=".3"/>
    <g transform="translate(259.76 686.36)">
        <path d="M23 0h22v22H23z" opacity=".001"/>
        <circle cx="34" cy="11" r="11" fill="#fff" opacity=".08"/>
        <path fill="#dfdfdf" d="M30.003 6.997h1.031c.255.011.51.129.688.313l2.28 2.28 2.311-2.28c.266-.23.447-.306.688-.313h1v1c0 .287-.035.55-.25.75l-2.28 2.281 2.248 2.25c.188.188.281.454.281.719v1h-1c-.264 0-.53-.093-.718-.281l-2.28-2.282-2.28 2.282a1.01 1.01 0 0 1-.719.28h-1v-1c0-.264.094-.53.282-.718l2.28-2.25-2.28-2.281a.91.91 0 0 1-.281-.75z"/>
    </g>
    <rect width="45" height="45" x="25.629" y="745.47" fill="#fff" opacity=".08" rx="22.5" ry="22.5"/>
    <path fill="#989898" d="M51.94 851c-2.5 0-4.5 1.638-4.5 3.638V862h4.5z"/>
    <path fill="#989898" d="M47.44 861.994v23h4.5v-23z"/>
    <path fill="#c1c1c1" d="M81.94 849.994v10h9.5c0-6-3.786-10-9.5-10M81.94 849.993c-5.714 0-9.5 4-9.5 10h9.5zM72.44 860v23h9.5v-23zM81.94 860v23h9.5v-23z"/>
    <path fill="#dfdfdf" d="M114.94 849.994v10h9.5c0-6-3.786-10-9.5-10M114.94 849.993c-5.714 0-9.5 4-9.5 10h9.5zM105.44 860v23h9.5v-23zM114.94 860v23h9.5v-23zM114.94 893.08v-10h9.5c0 6-3.786 10-9.5 10M114.94 893.08c-5.714 0-9.5-4-9.5-10h9.5z"/>
    <path fill="#c1c1c1" d="M81.94 893.08v-10h9.5c0 6-3.786 10-9.5 10M81.94 893.08c-5.714 0-9.5-4-9.5-10h9.5z"/>
    <path fill="#989898" d="M51.94 851c2.5 0 4.473 1.638 4.5 3.638V862h-4.5z"/>
    <path fill="#989898" d="M56.44 861.994v23h-4.5v-23zM51.94 896c-2.5 0-4.5-1.638-4.5-3.638V885h4.5zM51.94 896.06c2.5 0 4.5-1.638 4.5-3.638v-7.362h-4.5z"/>
    <path fill="#1a1a1a" d="M356.93 913.19h30v30h-30z" opacity=".6"/>
    <path d="M401.433 913.19h5v30h-5zM408.933 910.69v-5h30v5zM401.433 905.69h5v5h-5zM441.433 905.69h5v5h-5zM441.433 913.19h5v30h-5zM408.933 950.69v-5h30v5zM441.433 945.69h5v5h-5zM401.433 945.69h5v5h-5z" opacity=".15"/>
    <path d="M349.43 913.19h5v30h-5zM349.43 905.69h5v5h-5zM386.93 905.69v5h-30v-5zM389.43 905.69h5v5h-5zM389.43 913.19h5v30h-5zM389.43 945.69h5v5h-5zM356.93 950.69v-5h30v5zM349.43 945.69h5v5h-5z" opacity=".6"/>
    <path fill="#292929" d="M408.93 913.19h30v30h-30z" opacity=".6"/>
    <path fill="#1e1e1e" d="M238.45 906.19h40v-1h-40z"/>
    <path d="M238.45 947.19h40v-40h-40z" opacity=".001"/>
    <path fill="#1e1e1e" d="M237.45 905.19c-1.102 0-.997-.104-.997.997h.997zM279.45 905.19c1.102 0 .997-.104.997.997h-.997zM237.45 947.19v-40h-1v40zM279.45 907.19v40h1v-40zM238.45 948.19h40v1h-40zM237.45 949.19c-1.102 0-.997.104-.997-.997h.997zM279.45 949.19c1.102 0 .997.104.997-.997h-.997z"/>
    <path id="d" fill="#1e1e1e" d="M172 921.5h-2v-6h2z" transform="matrix(0 -1 .66667 0 -510.34 777)"/>
    <use xlink:href="#d" width="100%" height="100%" transform="translate(4)"/>
    <use xlink:href="#d" width="100%" height="100%" transform="translate(-4)"/>
    <path fill="#1e1e1e" d="M291.49 905.83h40v-1h-40z"/>
    <path d="M291.49 946.83h40v-40h-40z" opacity=".001"/>
    <path fill="#1e1e1e" d="M290.49 904.83c-1.102 0-.997-.104-.997.997h.997zM332.49 904.83c1.102 0 .997-.104.997.997h-.997zM290.49 946.83v-40h-1v40zM332.49 906.83v40h1v-40zM291.49 947.83h40v1h-40zM290.49 948.83c-1.102 0-.997.104-.997-.997h.997zM332.49 948.83c1.102 0 .997.104.997-.997h-.997z"/>
    <path fill="#242424" d="M78 116.88h-6v6h6zM84 116.88h-6v6h6zM90 116.88h-6v6h6z"/>
    <path d="M90 110.88v-6h-6v6zM84 110.88v-6h-6v6z" opacity=".001"/>
    <path fill="#242424" d="M78 110.88h-6v6h6zM84 110.88h-6v6h6zM90 110.88h-6v6h6z"/>
    <path fill="#3a3a3a" d="M78 110.88v-6h-6v6z"/>
    <path fill="#242424" d="M72 104.88h-6v6h6z"/>
    <path fill="#0f0f0f" fill-rule="evenodd" d="M118 481h48v48h-48z" opacity=".65"/>
    <path fill="#0f0f0f" fill-rule="evenodd" d="M108.004 481h10v48h-10z" opacity=".65"/>
    <path fill="#0f0f0f" fill-rule="evenodd" d="M118 471.027a9.98 9.98 0 0 0-9.997 10h10z" opacity=".65"/>
    <path fill="#0f0f0f" fill-rule="evenodd" d="M166 471v10h-48v-10z" opacity=".65"/>
    <path fill="#0f0f0f" fill-rule="evenodd" d="M175.993 481a9.98 9.98 0 0 0-10-9.996v10z" opacity=".65"/>
    <path fill="#0f0f0f" fill-rule="evenodd" d="M176 481h-10v48h10z" opacity=".65"/>
    <path fill="#0f0f0f" fill-rule="evenodd" d="M166 538.993a9.98 9.98 0 0 0 9.996-10h-10z" opacity=".65"/>
    <path fill="#0f0f0f" fill-rule="evenodd" d="M118.01 538.99v-10h48v10zM108.007 529a9.98 9.98 0 0 0 10 9.996v-10z" opacity=".65"/>
    <g fill-rule="evenodd">
        <path fill="#0f0f0f" d="M31.004 469.998h50v10.023h-50z" opacity=".65"/>
        <path fill="url(#e)" d="M-307 292.04h50.004v5.959H-307z" opacity=".75" transform="matrix(1 0 0 -1.0033 338.004 763.003)"/>
    </g>
    <g id="h" fill-rule="evenodd">
        <path fill="#0f0f0f" stroke-width="1.291" d="M21 480.003v50h10.002v-50z" opacity=".65"/>
        <path fill="url(#f)" d="M-307.02 292.02h50.013v5.998h-50.013z" opacity=".75" transform="matrix(0 .9998 -1.0006 0 313.191 786.962)"/>
    </g>
    <g fill-rule="evenodd">
        <path fill="#0f0f0f" d="M81.004 540h-50v-10h50z" opacity=".65"/>
        <path fill="url(#g)" d="M-307 288h50v10h-50z" opacity=".75" transform="translate(338.004 252)"/>
    </g>
    <path fill="#b74aff" fill-rule="evenodd" d="M54.004 464h2v6h-2z"/>
    <use xlink:href="#h" width="100%" height="100%" transform="matrix(-1 0 0 1 112 0)"/>
    <path fill="#b74aff" fill-rule="evenodd" d="M91 508v-2h6v2zM54 540h2v10h-2zM15 508v-2h6v2z"/>
    <g id="P" fill-rule="nonzero">
        <path fill="url(#i)" d="M31 464c-9.941 0-16 6.059-16 16h6a10 10 0 0 1 10-10z" opacity=".75" style="isolation:auto;mix-blend-mode:normal" transform="translate(-.001)"/>
        <path fill="#0f0f0f" stroke-width="1.667" d="M9 43.939a10 10 0 0 0-10 10H9z" color="#000" opacity=".65" style="isolation:auto;mix-blend-mode:normal" transform="matrix(0 1 1 0 -22.94 471)"/>
    </g>
    <g id="Q" fill-rule="nonzero">
        <path fill="url(#j)" d="M15 530c0 9.941 6.059 20 16 20v-10c-5.523 0-10-4.477-10-10z" opacity=".75" style="isolation:auto;mix-blend-mode:normal" transform="translate(.002 .01)"/>
        <path fill="#0f0f0f" stroke-width="1.667" d="M9 43.939a10 10 0 0 0-10 10H9z" color="#000" opacity=".65" style="isolation:auto;mix-blend-mode:normal" transform="rotate(-90 258.036 280.974)"/>
    </g>
    <path fill="#fff" fill-rule="evenodd" d="M191 495h8v4h-8zM191 507h8v4h-8zM191 499h8v8h-8zM199 499h4v8h-4zM187 499h4v8h-4z" opacity=".1"/>
    <path fill="#fff" fill-rule="evenodd" d="M187 495h4v4h-4zM199 495h4v4h-4zM187 507h4v4h-4zM199 507h4v4h-4z" opacity=".1" style="paint-order:normal"/>
    <path fill="#212121" fill-rule="evenodd" d="M380 814.26h30v30h-30z" opacity=".8" style="paint-order:normal"/>
    <path fill="#1c1c1c" fill-rule="evenodd" d="M412 814.26h30v30h-30z" opacity=".8" style="paint-order:normal"/>
    <path d="M307.53 359.27h20v20h-20zM307.53 359.27v20h-5v-20zM307.53 354.27v5h-5v-5zM307.53 354.27h20v5h-20zM332.53 359.27v20h-5v-20zM332.53 354.27v5h-5v-5zM302.527 379.27h5v4h-5zM327.527 379.27h5v4h-5zM307.527 379.27h20v4h-20zM342.53 359.27h20v20h-20zM342.53 359.27v20h-5v-20zM342.53 354.27v5h-5v-5zM342.53 354.27h20v5h-20zM367.53 359.27v20h-5v-20zM367.53 354.27v5h-5v-5zM337.527 379.27h5v4h-5zM362.527 379.27h5v4h-5zM342.527 379.27h20v4h-20z" opacity=".35"/>
    <path fill="#1a1a1a" fill-rule="evenodd" d="M371.77 578.05h48v48h-48z" opacity=".8"/>
    <path fill="#1a1a1a" fill-rule="evenodd" d="M365.78 578.05h6v48h-6zM371.78 572.05a5.987 5.987 0 0 0-5.998 6h6zM419.79 572.06v6h-48v-6zM425.79 578.06a5.987 5.987 0 0 0-6-5.998v6z" opacity=".8"/>
    <path fill="#1a1a1a" fill-rule="evenodd" d="M425.77 578.05h-6v48h6zM419.78 632.05a5.987 5.987 0 0 0 5.998-6h-6z" opacity=".8"/>
    <path fill="#1a1a1a" fill-rule="evenodd" d="M371.78 632.05v-6h48v6zM365.78 626.05a5.987 5.987 0 0 0 6 5.998v-6z" opacity=".8"/>
    <g fill-rule="evenodd">
        <path fill="#1a1a1a" d="M276.98 569.99h50v6h-50z" opacity=".8"/>
        <path fill="url(#k)" d="M-306.64 287.79h50v7h-50z" opacity=".01" transform="matrix(1 0 0 -1 583.62 857.78)"/>
    </g>
    <g fill-rule="nonzero" color="#000">
        <path fill="url(#l)" d="M426 408v7a6 6 0 0 1 6 6h7c0-8.077-4.923-13-13-13" opacity=".01" style="isolation:auto;mix-blend-mode:normal" transform="translate(-99.02 154.99)"/>
        <path fill="#1a1a1a" d="M9 47.939a6 6 0 0 0-6 6h6z" opacity=".8" style="isolation:auto;mix-blend-mode:normal" transform="rotate(90 -93.035 473.955)"/>
    </g>
    <g fill-rule="evenodd">
        <path fill="#1a1a1a" d="M332.979 575.99v50h-6v-50z" opacity=".8"/>
        <path fill="url(#m)" d="M-307.05 287.99h50v7h-50z" opacity=".01" transform="matrix(0 1 1 0 44.99 883.04)"/>
    </g>
    <g fill-rule="evenodd">
        <path fill="#1a1a1a" d="M270.978 575.99v50h6v-50z" opacity=".8"/>
        <path fill="url(#n)" d="M-307.01 288.02h50v7h-50z" opacity=".01" transform="rotate(90 -162 721)"/>
    </g>
    <g fill-rule="evenodd">
        <path fill="#1a1a1a" d="M326.98 631.99h-50v-6h50z" opacity=".8"/>
        <path fill="url(#o)" d="M-307.01 288h50v7h-50z" opacity=".01" transform="translate(583.99 343.99)"/>
    </g>
    <path fill="#b74aff" fill-rule="evenodd" d="M299.74 562.99h2.5v7h-2.5zM332.99 604.24v-2.5h7v2.5zM299.74 631.99h2.5v7h-2.5zM263.99 604.99v-2.5h7v2.5z"/>
    <g fill-rule="nonzero" color="#000">
        <path fill="url(#p)" d="M376 408c-8.077 0-13 4.923-13 13h7a6 6 0 0 1 6-6z" opacity=".01" style="isolation:auto;mix-blend-mode:normal" transform="translate(-99.01 154.99)"/>
        <path fill="#1a1a1a" d="M9 47.939a6 6 0 0 0-6 6h6z" opacity=".8" style="isolation:auto;mix-blend-mode:normal" transform="matrix(0 1 1 0 223.05 566.99)"/>
    </g>
    <g fill-rule="nonzero" color="#000">
        <path fill="url(#q)" d="M432 471a6 6 0 0 1-6 6v7c8.077 0 13-4.923 13-13z" opacity=".01" style="isolation:auto;mix-blend-mode:normal" transform="translate(-99.01 154.95)"/>
        <path fill="#1a1a1a" d="M9 47.939a6 6 0 0 0-6 6h6z" opacity=".8" style="isolation:auto;mix-blend-mode:normal" transform="matrix(0 -1 -1 0 380.93 634.95)"/>
    </g>
    <g fill-rule="nonzero" color="#000">
        <path fill="url(#r)" d="M363 471c0 8.077 4.923 13 13 13v-7a6 6 0 0 1-6-6z" opacity=".01" style="isolation:auto;mix-blend-mode:normal" transform="translate(-99.01 154.99)"/>
        <path fill="#1a1a1a" d="M9 47.939a6 6 0 0 0-6 6h6z" opacity=".8" style="isolation:auto;mix-blend-mode:normal" transform="rotate(-90 429.02 205.97)"/>
    </g>
    <path fill="#fff" d="M367.5 22.5v36h48v-36z" class="ColorScheme-Highlight" color="#3daee6" opacity=".15"/>
    <g color="#3daee6">
        <path fill="#fff" d="M366.5 16.5c-2.77 0-5 2.23-5 5h5z" opacity=".15"/>
        <path fill="none" d="M366.5 15.5c-3.324 0-6 2.676-6 6h2c0-2.216 1.784-4 4-4z"/>
        <path fill="#1a73e8" d="M366.5 16.5c-2.77 0-5 2.23-5 5h2c0-1.662 1.338-3 3-3z"/>
    </g>
    <g color="#3daee6">
        <path fill="#fff" d="M367.5 17.5v4h47.999v-4z" class="ColorScheme-Highlight" opacity=".15"/>
        <path fill="none" d="M367.5 15.5v2h47.999v-2z" class="ColorScheme-Highlight"/>
        <path fill="#1a73e8" d="M367.5 16.5v2h47.999v-2z" class="ColorScheme-Highlight"/>
    </g>
    <g color="#3daee6">
        <path fill="#fff" d="M416.5 16.5c2.77 0 5 2.23 5 5h-5z" opacity=".15"/>
        <path fill="none" d="M416.5 15.5c3.324 0 6 2.676 6 6h-2c0-2.216-1.784-4-4-4z"/>
        <path fill="#1a73e8" d="M416.5 16.5c2.77 0 5 2.23 5 5h-2c0-1.662-1.338-3-3-3z"/>
    </g>
    <g color="#3daee6">
        <path fill="#fff" d="M362.5 58.498h4v-36h-4z" class="ColorScheme-Highlight" opacity=".15"/>
        <path fill="none" d="M360.5 58.498h2v-36h-2z" class="ColorScheme-Highlight"/>
        <path fill="#1a73e8" d="M361.5 58.498h2v-36h-2z" class="ColorScheme-Highlight"/>
    </g>
    <g color="#3daee6">
        <path fill="#fff" d="M420.54 22.5h-4v36h4z" class="ColorScheme-Highlight" opacity=".15"/>
        <path fill="none" d="M422.54 22.5h-2v36h2z" class="ColorScheme-Highlight"/>
        <path fill="#1a73e8" d="M421.54 22.5h-2v36h2z" class="ColorScheme-Highlight"/>
    </g>
    <g color="#3daee6">
        <path fill="#fff" d="M367.5 63.5v-4h47.999v4z" class="ColorScheme-Highlight" opacity=".15"/>
        <path fill="none" d="M367.5 65.5v-2h47.999v2z" class="ColorScheme-Highlight"/>
        <path fill="#1a73e8" d="M367.5 64.5v-2h47.999v2z" class="ColorScheme-Highlight"/>
    </g>
    <g color="#3daee6">
        <path fill="#fff" d="M366.5 64.5c-2.77 0-5-2.23-5-5h5z" opacity=".15"/>
        <path fill="none" d="M366.5 65.5c-3.324 0-6-2.676-6-6h2c0 2.216 1.784 4 4 4z"/>
        <path fill="#1a73e8" d="M366.5 64.5c-2.77 0-5-2.23-5-5h2c0 1.662 1.338 3 3 3z"/>
    </g>
    <g color="#3daee6">
        <path fill="#fff" d="M416.5 64.5c2.77 0 5-2.23 5-5h-5z" opacity=".15"/>
        <path fill="none" d="M416.5 65.5c3.324 0 6-2.676 6-6h-2c0 2.216-1.784 4-4 4z"/>
        <path fill="#1a73e8" d="M416.5 64.5c2.77 0 5-2.23 5-5h-2c0 1.662-1.338 3-3 3z"/>
    </g>
    <path fill="#fff" d="M291.5 22.5v36h48v-36z" class="ColorScheme-Highlight" color="#3daee6" opacity=".1"/>
    <g color="#3daee6">
        <path fill="#fff" d="M290.5 16.5c-2.77 0-5 2.23-5 5h5z" opacity=".1"/>
        <path fill="none" d="M290.5 15.5c-3.324 0-6 2.676-6 6h2c0-2.216 1.784-4 4-4z"/>
        <path fill="none" d="M290.5 16.5c-2.77 0-5 2.23-5 5h2c0-1.662 1.338-3 3-3z"/>
    </g>
    <g color="#3daee6">
        <path fill="#fff" d="M291.5 16.5v5h47.999v-5z" class="ColorScheme-Highlight" opacity=".1"/>
        <path fill="none" d="M291.5 15.5v2h47.999v-2z" class="ColorScheme-Highlight"/>
        <path fill="none" d="M291.5 16.5v2h47.999v-2z" class="ColorScheme-Highlight"/>
    </g>
    <g color="#3daee6">
        <path fill="#fff" d="M340.5 16.5c2.77 0 5 2.23 5 5h-5z" opacity=".1"/>
        <path fill="none" d="M340.5 15.5c3.324 0 6 2.676 6 6h-2c0-2.216-1.784-4-4-4z"/>
        <path fill="none" d="M340.5 16.5c2.77 0 5 2.23 5 5h-2c0-1.662-1.338-3-3-3z"/>
    </g>
    <g color="#3daee6">
        <path fill="#fff" d="M285.5 58.498h5v-36h-5z" class="ColorScheme-Highlight" opacity=".1"/>
        <path fill="none" d="M284.5 58.498h2v-36h-2z" class="ColorScheme-Highlight"/>
        <path fill="none" d="M285.5 58.498h2v-36h-2z" class="ColorScheme-Highlight"/>
    </g>
    <g color="#3daee6">
        <path fill="#fff" d="M345.54 22.5h-5v36h5z" class="ColorScheme-Highlight" opacity=".1"/>
        <path fill="none" d="M346.54 22.5h-2v36h2z" class="ColorScheme-Highlight"/>
        <path fill="none" d="M345.54 22.5h-2v36h2z" class="ColorScheme-Highlight"/>
    </g>
    <g color="#3daee6">
        <path fill="#fff" d="M291.5 64.5v-5h47.999v5z" class="ColorScheme-Highlight" opacity=".1"/>
        <path fill="none" d="M291.5 65.5v-2h47.999v2z" class="ColorScheme-Highlight"/>
        <path fill="none" d="M291.5 64.5v-2h47.999v2z" class="ColorScheme-Highlight"/>
    </g>
    <g color="#3daee6">
        <path fill="#fff" d="M290.5 64.5c-2.77 0-5-2.23-5-5h5z" opacity=".1"/>
        <path fill="none" d="M290.5 65.5c-3.324 0-6-2.676-6-6h2c0 2.216 1.784 4 4 4z"/>
        <path fill="none" d="M290.5 64.5c-2.77 0-5-2.23-5-5h2c0 1.662 1.338 3 3 3z"/>
    </g>
    <g color="#3daee6">
        <path fill="#fff" d="M340.5 64.5c2.77 0 5-2.23 5-5h-5z" opacity=".1"/>
        <path fill="none" d="M340.5 65.5c3.324 0 6-2.676 6-6h-2c0 2.216-1.784 4-4 4z"/>
        <path fill="none" d="M340.5 64.5c2.77 0 5-2.23 5-5h-2c0 1.662-1.338 3-3 3z"/>
    </g>
    <path fill="#fff" d="M369.05 94.755v36h48v-36z" class="ColorScheme-Highlight" color="#3daee6" opacity=".1"/>
    <g color="#3daee6">
        <path fill="#fff" d="M368.05 88.76c-2.77 0-5 2.23-5 5h5z" opacity=".1"/>
        <path fill="none" d="M368.05 87.76c-3.324 0-6 2.676-6 6h2c0-2.216 1.784-4 4-4z"/>
        <path fill="#fff" d="M368.05 88.76c-2.77 0-5 2.23-5 5h2c0-1.662 1.338-3 3-3z" opacity=".1"/>
    </g>
    <g color="#3daee6">
        <path fill="#fff" d="M369.05 88.76v5h47.999v-5z" class="ColorScheme-Highlight" opacity=".1"/>
        <path fill="none" d="M369.05 87.76v2h47.999v-2z" class="ColorScheme-Highlight"/>
        <path fill="#fff" d="M369.05 88.76v2h47.999v-2z" class="ColorScheme-Highlight" opacity=".1"/>
    </g>
    <g color="#3daee6">
        <path fill="#fff" d="M418.05 88.76c2.77 0 5 2.23 5 5h-5z" opacity=".1"/>
        <path fill="none" d="M418.05 87.76c3.324 0 6 2.676 6 6h-2c0-2.216-1.784-4-4-4z"/>
        <path fill="#fff" d="M418.05 88.76c2.77 0 5 2.23 5 5h-2c0-1.662-1.338-3-3-3z" opacity=".1"/>
    </g>
    <g color="#3daee6">
        <path fill="#fff" d="M363.05 130.758h5v-36h-5z" class="ColorScheme-Highlight" opacity=".1"/>
        <path fill="none" d="M362.05 130.758h2v-36h-2z" class="ColorScheme-Highlight"/>
        <path fill="#fff" d="M363.05 130.758h2v-36h-2z" class="ColorScheme-Highlight" opacity=".1"/>
    </g>
    <g color="#3daee6">
        <path fill="#fff" d="M423.04 94.755h-5v36h5z" class="ColorScheme-Highlight" opacity=".1"/>
        <path fill="none" d="M424.04 94.755h-2v36h2z" class="ColorScheme-Highlight"/>
        <path fill="#fff" d="M423.04 94.755h-2v36h2z" class="ColorScheme-Highlight" opacity=".1"/>
    </g>
    <g color="#3daee6">
        <path fill="#fff" d="M369.05 136.76v-5h47.999v5z" class="ColorScheme-Highlight" opacity=".1"/>
        <path fill="none" d="M369.05 137.76v-2h47.999v2z" class="ColorScheme-Highlight"/>
        <path fill="#fff" d="M369.05 136.76v-2h47.999v2z" class="ColorScheme-Highlight" opacity=".1"/>
    </g>
    <g color="#3daee6">
        <path fill="#fff" d="M368.05 136.76c-2.77 0-5-2.23-5-5h5z" opacity=".1"/>
        <path fill="none" d="M368.05 137.76c-3.324 0-6-2.676-6-6h2c0 2.216 1.784 4 4 4z"/>
        <path fill="#fff" d="M368.05 136.76c-2.77 0-5-2.23-5-5h2c0 1.662 1.338 3 3 3z" opacity=".1"/>
    </g>
    <g color="#3daee6">
        <path fill="#fff" d="M418.04 136.76c2.77 0 5-2.23 5-5h-5z" opacity=".1"/>
        <path fill="none" d="M418.04 137.76c3.324 0 6-2.676 6-6h-2c0 2.216-1.784 4-4 4z"/>
        <path fill="#fff" d="M418.04 136.76c2.77 0 5-2.23 5-5h-2c0 1.662-1.338 3-3 3z" opacity=".1"/>
    </g>
    <path fill="#fff" d="M292.05 94.755v36h48v-36z" class="ColorScheme-Highlight" color="#3daee6" opacity=".1"/>
    <g color="#3daee6">
        <path fill="#fff" d="M291.05 88.76c-2.77 0-5 2.23-5 5h5z" opacity=".1"/>
        <path fill="none" d="M291.05 87.76c-3.324 0-6 2.676-6 6h2c0-2.216 1.784-4 4-4z"/>
        <path fill="none" d="M291.05 88.76c-2.77 0-5 2.23-5 5h2c0-1.662 1.338-3 3-3z"/>
    </g>
    <g color="#3daee6">
        <path fill="#fff" d="M292.05 88.76v5h47.999v-5z" class="ColorScheme-Highlight" opacity=".1"/>
        <path fill="none" d="M292.05 87.76v2h47.999v-2z" class="ColorScheme-Highlight"/>
        <path fill="none" d="M292.05 88.76v2h47.999v-2z" class="ColorScheme-Highlight"/>
    </g>
    <g color="#3daee6">
        <path fill="#fff" d="M341.05 88.76c2.77 0 5 2.23 5 5h-5z" opacity=".1"/>
        <path fill="none" d="M341.05 87.76c3.324 0 6 2.676 6 6h-2c0-2.216-1.784-4-4-4z"/>
        <path fill="none" d="M341.05 88.76c2.77 0 5 2.23 5 5h-2c0-1.662-1.338-3-3-3z"/>
    </g>
    <g color="#3daee6">
        <path fill="#fff" d="M286.05 130.758h5v-36h-5z" class="ColorScheme-Highlight" opacity=".1"/>
        <path fill="none" d="M285.05 130.758h2v-36h-2z" class="ColorScheme-Highlight"/>
        <path fill="none" d="M286.05 130.758h2v-36h-2z" class="ColorScheme-Highlight"/>
    </g>
    <g color="#3daee6">
        <path fill="#fff" d="M346.04 94.755h-5v36h5z" class="ColorScheme-Highlight" opacity=".1"/>
        <path fill="none" d="M347.04 94.755h-2v36h2z" class="ColorScheme-Highlight"/>
        <path fill="none" d="M346.04 94.755h-2v36h2z" class="ColorScheme-Highlight"/>
    </g>
    <g color="#3daee6">
        <path fill="#fff" d="M292.05 136.76v-5h47.999v5z" class="ColorScheme-Highlight" opacity=".1"/>
        <path fill="none" d="M292.05 137.76v-2h47.999v2z" class="ColorScheme-Highlight"/>
        <path fill="none" d="M292.05 136.76v-2h47.999v2z" class="ColorScheme-Highlight"/>
    </g>
    <g color="#3daee6">
        <path fill="#fff" d="M291.05 136.76c-2.77 0-5-2.23-5-5h5z" opacity=".1"/>
        <path fill="none" d="M291.05 137.76c-3.324 0-6-2.676-6-6h2c0 2.216 1.784 4 4 4z"/>
        <path fill="none" d="M291.05 136.76c-2.77 0-5-2.23-5-5h2c0 1.662 1.338 3 3 3z"/>
    </g>
    <g color="#3daee6">
        <path fill="#fff" d="M341.04 136.76c2.77 0 5-2.23 5-5h-5z" opacity=".1"/>
        <path fill="none" d="M341.04 137.76c3.324 0 6-2.676 6-6h-2c0 2.216-1.784 4-4 4z"/>
        <path fill="none" d="M341.04 136.76c2.77 0 5-2.23 5-5h-2c0 1.662-1.338 3-3 3z"/>
    </g>
    <g id="s">
        <path fill="none" d="M-5-80h6v6h-6z" style="paint-order:markers stroke fill" transform="translate(9 116)"/>
        <path fill="#fff" d="M1-80c-3.324 0-6 2.676-6 6h6z" opacity=".1" style="paint-order:markers stroke fill" transform="translate(9 116)"/>
    </g>
    <path id="t" fill="#fff" d="M1-80h26v6H1z" opacity=".1" style="paint-order:markers stroke fill" transform="translate(9 116)"/>
    <path fill="#fff" d="M1-74h26v26H1z" opacity=".1" style="paint-order:markers stroke fill" transform="translate(9 116)"/>
    <use xlink:href="#s" width="100%" height="100%" transform="matrix(-1 0 0 1 46 0)"/>
    <use xlink:href="#s" width="100%" height="100%" transform="rotate(180 23 55)"/>
    <use xlink:href="#s" width="100%" height="100%" transform="matrix(1 0 0 -1 0 110)"/>
    <use xlink:href="#t" width="100%" height="100%" transform="translate(0 32)"/>
    <use xlink:href="#t" width="100%" height="100%" transform="rotate(90 7 39)"/>
    <use xlink:href="#t" width="100%" height="100%" transform="rotate(90 23 55)"/>
    <g id="u">
        <path fill="none" d="M-5-80h6v6h-6z" style="paint-order:markers stroke fill" transform="translate(55.989 115.99)scale(.99999)"/>
        <path fill="#fff" d="M1-80c-3.324 0-6 2.676-6 6h6z" opacity=".2" style="paint-order:markers stroke fill" transform="translate(55.989 115.99)scale(.99999)"/>
    </g>
    <path id="v" fill="#fff" d="M1-80h26v6H1z" opacity=".2" style="paint-order:markers stroke fill" transform="translate(55.989 115.99)scale(.99999)"/>
    <path fill="#fff" d="M1-74h26v26H1z" opacity=".2" style="paint-order:markers stroke fill" transform="translate(55.989 115.99)scale(.99999)"/>
    <use xlink:href="#u" width="100%" height="100%" transform="matrix(-1 0 0 1 139.97 0)"/>
    <use xlink:href="#u" width="100%" height="100%" transform="rotate(180 69.993 54.988)"/>
    <use xlink:href="#u" width="100%" height="100%" transform="matrix(1 0 0 -1 0 110.01)"/>
    <use xlink:href="#v" width="100%" height="100%" transform="translate(0 32)"/>
    <use xlink:href="#v" width="100%" height="100%" transform="rotate(90 53.99 39.001)"/>
    <use xlink:href="#v" width="100%" height="100%" transform="rotate(90 69.993 54.988)"/>
    <g id="w">
        <path fill="none" d="M-5-80h6v6h-6z" style="paint-order:markers stroke fill" transform="translate(103 116)scale(.99999)"/>
        <path fill="#fff" d="M1-80c-3.324 0-6 2.676-6 6h6z" opacity=".25" style="paint-order:markers stroke fill" transform="translate(103 116)scale(.99999)"/>
    </g>
    <path id="x" fill="#fff" d="M1-80h26v6H1z" opacity=".25" style="paint-order:markers stroke fill" transform="translate(103 116)scale(.99999)"/>
    <path fill="#fff" d="M1-74h26v26H1z" opacity=".25" style="paint-order:markers stroke fill" transform="translate(103 116)scale(.99999)"/>
    <use xlink:href="#w" width="100%" height="100%" transform="matrix(-1 0 0 1 233.99 0)"/>
    <use xlink:href="#w" width="100%" height="100%" transform="rotate(180 117 54.998)"/>
    <use xlink:href="#w" width="100%" height="100%" transform="matrix(1 0 0 -1 0 110.03)"/>
    <use xlink:href="#x" width="100%" height="100%" transform="translate(0 32)"/>
    <use xlink:href="#x" width="100%" height="100%" transform="rotate(90 101 39.01)"/>
    <use xlink:href="#x" width="100%" height="100%" transform="rotate(90 117 54.998)"/>
    <g id="y">
        <path fill="none" d="M-5-80h6v6h-6z" style="paint-order:markers stroke fill" transform="translate(154 116)scale(.99999)"/>
        <path fill="#4285f4" d="M1-80c-3.324 0-6 2.676-6 6h6z" style="paint-order:markers stroke fill" transform="translate(154 116)scale(.99999)"/>
    </g>
    <path id="z" fill="#4285f4" d="M1-80h26v6H1z" style="paint-order:markers stroke fill" transform="translate(154 116)scale(.99999)"/>
    <path fill="#4285f4" d="M1-74h26v26H1z" style="paint-order:markers stroke fill" transform="translate(154 116)scale(.99999)"/>
    <use xlink:href="#y" width="100%" height="100%" transform="matrix(-1 0 0 1 335.99 0)"/>
    <use xlink:href="#y" width="100%" height="100%" transform="rotate(180 168 54.998)"/>
    <use xlink:href="#y" width="100%" height="100%" transform="matrix(1 0 0 -1 0 110.03)"/>
    <use xlink:href="#z" width="100%" height="100%" transform="translate(0 32)"/>
    <use xlink:href="#z" width="100%" height="100%" transform="rotate(90 152 39.01)"/>
    <use xlink:href="#z" width="100%" height="100%" transform="rotate(90 168 54.998)"/>
    <g id="A" stroke-linecap="square">
        <path fill="none" stroke-width=".037" d="M21.167 15.875h3.175v3.175h-3.175z" style="paint-order:markers stroke fill" transform="translate(-63.667 -132)scale(5.0394)"/>
        <path fill="#fff" stroke-width=".507" d="M92 60c-6.648 0-12 5.352-12 12h12z" opacity=".1" style="paint-order:markers stroke fill" transform="translate(-63.667 -132)scale(1.3333)"/>
    </g>
    <path id="B" fill="#fff" stroke-linecap="square" stroke-width=".254" d="M24.342 15.875h3.175v3.175h-3.175z" opacity=".1" style="paint-order:markers stroke fill" transform="matrix(.31496 0 0 5.0394 52.333 -132)"/>
    <use xlink:href="#A" width="100%" height="100%" transform="matrix(-1 0 0 1 121 0)"/>
    <use xlink:href="#A" width="100%" height="100%" transform="rotate(180 60.5 -34.5)"/>
    <use xlink:href="#A" width="100%" height="100%" transform="matrix(1 0 0 -1 0 -69)"/>
    <use xlink:href="#B" width="100%" height="100%" transform="matrix(1 0 0 -1 0 -69)"/>
    <g id="C">
        <path fill="none" d="M127.001-51.9h16v16h-16z"/>
        <path fill="#fff" stroke-width=".265" d="M143.001-51.9c-8.864 0-16 7.136-16 16h16z" opacity=".15"/>
    </g>
    <path id="D" fill="#fff" d="M24.342 15.875h3.175v3.175h-3.175z" opacity=".15" transform="matrix(.31496 0 0 5.0394 136.33 -131.9)"/>
    <use xlink:href="#C" width="100%" height="100%" transform="matrix(-1 0 0 1 289 0)"/>
    <use xlink:href="#C" width="100%" height="100%" transform="rotate(180 144.5 -34.4)"/>
    <use xlink:href="#C" width="100%" height="100%" transform="matrix(1 0 0 -1 0 -68.8)"/>
    <use xlink:href="#D" width="100%" height="100%" transform="matrix(1 0 0 -1 0 -68.8)"/>
    <g id="E">
        <path fill="none" d="M86.001-52h16v16h-16z"/>
        <path fill="#fff" stroke-width=".265" d="M102.001-52c-8.864 0-16 7.136-16 16h16z" opacity=".2"/>
    </g>
    <path id="F" fill="#fff" d="M24.342 15.875h3.175v3.175h-3.175z" opacity=".2" transform="matrix(.31496 0 0 5.0394 95.333 -132)"/>
    <use xlink:href="#E" width="100%" height="100%" transform="matrix(-1 0 0 1 207 0)"/>
    <use xlink:href="#E" width="100%" height="100%" transform="rotate(180 103.5 -34.5)"/>
    <use xlink:href="#E" width="100%" height="100%" transform="matrix(1 0 0 -1 0 -69)"/>
    <use xlink:href="#F" width="100%" height="100%" transform="matrix(1 0 0 -1 0 -69)"/>
    <path id="G" fill="#fff" d="M18-35h16v1H18z" opacity=".1" style="paint-order:markers stroke fill" transform="translate(25)"/>
    <path fill="#fff" d="M18-35h16v1H18z" opacity=".1" style="paint-order:markers stroke fill" transform="matrix(.0625 0 0 1 58.875 0)"/>
    <use xlink:href="#G" width="100%" height="100%" transform="translate(19)"/>
    <path id="H" fill="#fff" d="M18-35h16v1H18z" opacity=".2" style="paint-order:markers stroke fill" transform="translate(68)"/>
    <path fill="#fff" d="M18-35h16v1H18z" opacity=".2" style="paint-order:markers stroke fill" transform="matrix(.0625 0 0 1 101.88 0)"/>
    <use xlink:href="#H" width="100%" height="100%" transform="translate(19)"/>
    <path id="I" fill="#fff" d="M18-35h16v1H18z" opacity=".15" style="paint-order:markers stroke fill" transform="translate(109)"/>
    <path fill="#fff" d="M18-35h16v1H18z" opacity=".15" style="paint-order:markers stroke fill" transform="matrix(.0625 0 0 1 142.87 0)"/>
    <use xlink:href="#I" width="100%" height="100%" transform="translate(19)"/>
    <path fill="#fff" d="M188 946v-17.999h-6v18zM188 921c-3.3 0-6 2.7-6 6h6zM189 928v18h18v-18zM208 946v-17.999h6v18zM208 921c3.3 0 6 2.7 6 6h-6zM189 927h17.999v-6h-18zM207 947h-17.999v6h18zM188 953c-3.3 0-6-2.7-6-6h6zM208 953c3.3 0 6-2.7 6-6h-6z" opacity=".2"/>
    <path fill="#fff" d="M152 946v-17.999h-6v18zM152 921c-3.3 0-6 2.7-6 6h6zM153 928v18h18v-18zM172 946v-17.999h6v18zM172 921c3.3 0 6 2.7 6 6h-6zM153 927h17.999v-6h-18zM171 947h-17.999v6h18zM152 953c-3.3 0-6-2.7-6-6h6zM172 953c3.3 0 6-2.7 6-6h-6z" opacity=".15"/>
    <g id="J">
        <path fill="none" stroke-width="1.225" d="M90 641h-6v9h6z"/>
        <path fill="#262626" d="M90 644c-3.324 0-6 2.677-6 6h6z" opacity=".8"/>
        <path fill="none" d="M84 644h6v6h-6z"/>
        <path d="M-120 608c-3.324 0-6 2.676-6 6h1c0-2.77 2.23-5 5-5z" opacity=".36" style="paint-order:markers stroke fill" transform="translate(209.999 36.007)scale(.99999)"/>
    </g>
    <path fill="none" d="M90 641h26v9H90z"/>
    <path fill="#262626" d="M90 644h26v6H90z" opacity=".8"/>
    <path d="M90 644h26v1H90z" opacity=".36"/>
    <path fill="#262626" d="M90 650.002h26v16H90z" opacity=".8"/>
    <use xlink:href="#J" width="100%" height="100%" transform="matrix(-1 0 0 1 206 0)"/>
    <path fill="#262626" d="M122 649.995v16h-6v-16z" opacity=".8"/>
    <path d="M122 649.995v16h-1v-16z" opacity=".36"/>
    <path fill="#262626" d="M84 649.995v16h6v-16z" opacity=".8"/>
    <path d="M84 649.995v16h1v-16z" opacity=".36"/>
    <path fill="#262626" d="M84 665.995v3h6v-3z" opacity=".8"/>
    <path d="M84 665.995v3h1v-3z" opacity=".36"/>
    <path fill="#262626" d="M122 665.995v3h-6v-3z" opacity=".8"/>
    <path d="M122 665.995v3h-1v-3z" opacity=".36"/>
    <path fill="#262626" d="M90 666.001h26v3H90z" opacity=".8"/>
    <g id="K">
        <path d="M139 644c-3.324 0-6 2.677-6 6h6z" opacity=".25"/>
        <path fill="none" d="M133 644h6v6h-6z"/>
    </g>
    <path d="M139 644h26v6h-26zM139 650.002h26v16h-26z" opacity=".25"/>
    <use xlink:href="#K" width="100%" height="100%" transform="matrix(-1 0 0 1 304 0)"/>
    <path d="M171 649.995v16h-6v-16zM133 649.995v16h6v-16zM133 665.995v3h6v-3zM171 665.995v3h-6v-3zM139 666.001h26v3h-26z" opacity=".25"/>
    <path id="L" fill="#333" d="M172 921.5h-2v-6h2z" transform="matrix(0 -1 .66667 0 -491.34 777)"/>
    <use xlink:href="#L" width="100%" height="100%" transform="translate(-4)"/>
    <use xlink:href="#L" width="100%" height="100%" transform="translate(4)"/>
    <g id="M" fill-rule="evenodd">
        <path fill-opacity="0" d="M184 595h-4v4h4z"/>
        <path fill="#212121" d="M180.5 595h-.5v2h.5z"/>
    </g>
    <use xlink:href="#M" width="100%" height="100%" transform="matrix(-1 0 0 1 368 0)"/>
    <use xlink:href="#M" id="N" width="100%" height="100%" transform="matrix(-1 0 0 1 364 5)"/>
    <use xlink:href="#N" width="100%" height="100%" transform="matrix(1 0 0 -1 4 1204)"/>
    <use xlink:href="#M" width="100%" height="100%" transform="matrix(1 0 0 -1 0 1204)"/>
    <use xlink:href="#M" width="100%" height="100%" transform="translate(4 10)"/>
    <use xlink:href="#M" width="100%" height="100%" transform="matrix(1 0 0 -1 0 1208)"/>
    <use xlink:href="#M" width="100%" height="100%" transform="rotate(180 184 604)"/>
    <g id="O" fill="none">
        <path stroke-width="1.225" d="M37 640h-6v9h6z"/>
        <path d="M37 643c-3.324 0-6 2.677-6 6h6z"/>
        <path d="M31 643h6v6h-6z"/>
        <path d="M-120 608c-3.324 0-6 2.676-6 6h1c0-2.77 2.23-5 5-5z" opacity=".36" style="paint-order:markers stroke fill" transform="translate(156.999 35.007)scale(.99999)"/>
    </g>
    <g fill="none">
        <path d="M37 640.032h26v9H37z"/>
        <path d="M37 643.031h26v6H37z"/>
        <path d="M37 643.031h26v1H37z" opacity=".36"/>
    </g>
    <path fill="none" d="M37 649.002h26v16H37z"/>
    <use xlink:href="#O" width="100%" height="100%" fill="none" transform="matrix(-1 0 0 1 100.01 0)"/>
    <g fill="none">
        <path d="M69.005 649.005v16h-6v-16z"/>
        <path d="M69.005 649.005v16h-1v-16z" opacity=".36"/>
    </g>
    <g fill="none">
        <path d="M30.99 649.005v16h6v-16z"/>
        <path d="M30.99 649.005v16h1v-16z" opacity=".36"/>
    </g>
    <g fill="none">
        <path d="M30.99 665.025v3h6v-3z"/>
        <path d="M30.99 665.025v3h1v-3z" opacity=".36"/>
    </g>
    <g fill="none">
        <path d="M69.005 665.025v3h-6v-3z"/>
        <path d="M69.005 665.025v3h-1v-3z" opacity=".36"/>
    </g>
    <path fill="none" d="M37 665.021h26v3H37z"/>
    <use xlink:href="#P" width="100%" height="100%" transform="matrix(-1 0 0 1 112 0)"/>
    <use xlink:href="#Q" width="100%" height="100%" transform="matrix(-1 0 0 1 112 0)"/>
    <path fill="#81c995" d="M300.79 230.3a8 8 0 0 0-8 8 8 8 0 0 0 8 8 8 8 0 0 0 8-8 8 8 0 0 0-8-8m4.6 3.59 1.41 1.41-8 8-4-4 1.41-1.41 2.59 2.59zM375.06 230.09a8 8 0 0 0-8 8 8 8 0 0 0 8 8 8 8 0 0 0 8-8 8 8 0 0 0-8-8m-4 7h8v2h-8z" style="paint-order:stroke fill markers"/>
    <path fill="#fff" d="M223.9 230.53a8 8 0 0 0-8 8 8 8 0 0 0 8 8 8 8 0 0 0 8-8 8 8 0 0 0-8-8m0 2a6 6 0 0 1 6 6 6 6 0 0 1-6 6 6 6 0 0 1-6-6 6 6 0 0 1 6-6M260.94 229.88a8 8 0 0 0-8 8 8 8 0 0 0 8 8 8 8 0 0 0 8-8 8 8 0 0 0-8-8m0 2a6 6 0 0 1 6 6 6 6 0 0 1-6 6 6 6 0 0 1-6-6 6 6 0 0 1 6-6M193.42 230.26a8 8 0 0 0-8 8 8 8 0 0 0 8 8 8 8 0 0 0 8-8 8 8 0 0 0-8-8m0 2a6 6 0 0 1 6 6 6 6 0 0 1-6 6 6 6 0 0 1-6-6 6 6 0 0 1 6-6" opacity=".5"/>
    <path fill="#81c995" d="M335.52 230.3a8 8 0 0 0-8 8 8 8 0 0 0 8 8 8 8 0 0 0 8-8 8 8 0 0 0-8-8m4.6 3.59 1.41 1.41-8 8-4-4 1.41-1.41 2.59 2.59zM413.08 230.09a8 8 0 0 0-8 8 8 8 0 0 0 8 8 8 8 0 0 0 8-8 8 8 0 0 0-8-8m-4 7h8v2h-8z" style="paint-order:stroke fill markers"/>
</svg>
